<?xml version="1.0" encoding="UTF-8"?>
<svg xmlns="http://www.w3.org/2000/svg" xmlns:xlink="http://www.w3.org/1999/xlink" width="75pt" height="75pt" viewBox="0 0 75 75" version="1.1">
<g id="surface15767">
<path style=" stroke:none;fill-rule:nonzero;fill:rgb(0%,0%,0%);fill-opacity:1;" d="M 1.40625 0 C 0.773438 0.117188 0.28125 0.628906 0.1875 1.265625 C -0.078125 2.949219 -0.128906 5.511719 0.1875 8.25 C 0.503906 10.988281 1.175781 13.871094 2.71875 15.984375 L 22.5 43.5 L 22.5 53.8125 C 21.839844 53.503906 21.105469 53.082031 20.34375 52.546875 C 18.324219 51.121094 16.5 49.058594 16.5 45.84375 C 16.5 43.949219 16.371094 42.328125 15.9375 40.875 C 15.503906 39.421875 14.722656 38.144531 13.546875 37.171875 C 12.917969 36.65625 12.207031 36.402344 11.34375 36.1875 C 10.480469 35.972656 9.421875 35.765625 8.34375 36.515625 C 7.699219 36.949219 7.5 37.804688 7.875 38.484375 C 8.179688 39.019531 8.929688 40.5 9.375 41.8125 C 9.5625 42.355469 9.691406 42.808594 9.75 43.171875 C 9.636719 43.171875 9.679688 43.214844 9.515625 43.171875 C 9.050781 43.054688 8.460938 42.753906 7.875 42.1875 C 6.707031 41.050781 5.550781 38.816406 5.765625 34.59375 C 5.792969 34.152344 5.628906 33.726562 5.316406 33.417969 C 4.996094 33.113281 4.566406 32.957031 4.125 33 C 2.625 33.144531 1.335938 34.21875 0.75 35.578125 C 0.164062 36.9375 0 38.542969 0 40.546875 C 0 43.886719 1.636719 47.050781 3.890625 49.96875 C 6.144531 52.886719 9.082031 55.617188 12 57.9375 C 17.050781 61.957031 21.847656 64.6875 23.109375 65.390625 C 24.796875 70.925781 29.925781 75 36 75 C 43.433594 75 49.5 68.933594 49.5 61.5 L 49.5 31.546875 C 51.972656 34.574219 56.203125 39.746094 58.640625 42.703125 C 60.144531 44.535156 62.332031 46.574219 64.96875 47.953125 C 67.605469 49.332031 70.785156 50.042969 73.96875 48.984375 C 74.367188 48.847656 74.683594 48.558594 74.855469 48.167969 C 75.023438 47.789062 75.023438 47.355469 74.859375 46.96875 C 72.535156 41.519531 70.402344 37.410156 68.625 33.421875 C 68.589844 33.324219 68.542969 33.230469 68.484375 33.140625 C 62.671875 25.128906 48.140625 7.6875 48.140625 7.6875 C 45.960938 3.152344 41.355469 0 36 0 C 28.566406 0 22.5 6.066406 22.5 13.5 L 22.5 21 C 22.433594 20.296875 21.890625 19.730469 21.1875 19.640625 L 19.59375 19.40625 L 19.96875 17.203125 C 20.035156 16.804688 19.933594 16.394531 19.699219 16.074219 C 19.457031 15.746094 19.101562 15.527344 18.703125 15.46875 L 16.453125 15.140625 L 16.828125 12.890625 C 16.933594 12.074219 16.371094 11.324219 15.5625 11.203125 L 13.359375 10.828125 L 13.6875 8.625 C 13.753906 8.226562 13.652344 7.816406 13.417969 7.496094 C 13.175781 7.167969 12.820312 6.949219 12.421875 6.890625 L 10.21875 6.5625 L 10.546875 4.3125 C 10.683594 3.496094 10.144531 2.722656 9.328125 2.578125 L 5.71875 2.015625 C 5.578125 1.980469 4.824219 1.664062 4.171875 1.265625 C 3.519531 0.867188 2.957031 0.46875 2.4375 0.1875 C 2.128906 0.0078125 1.761719 -0.0664062 1.40625 0 Z M 36 3 C 40.261719 3 43.910156 5.511719 45.5625 9.140625 C 45.574219 9.1875 45.589844 9.234375 45.609375 9.28125 C 46.175781 10.574219 46.5 11.996094 46.5 13.5 L 46.5 27.09375 C 46.480469 27.234375 46.480469 27.375 46.5 27.515625 L 46.5 61.5 C 46.5 67.316406 41.816406 72 36 72 C 31.074219 72 26.972656 68.636719 25.828125 64.078125 C 25.816406 64.03125 25.800781 63.984375 25.78125 63.9375 C 25.59375 63.152344 25.5 62.339844 25.5 61.5 L 25.5 56.25 C 25.523438 56.089844 25.523438 55.941406 25.5 55.78125 L 25.5 43.171875 C 25.523438 43.011719 25.523438 42.863281 25.5 42.703125 L 25.5 26.765625 C 25.542969 26.566406 25.542969 26.355469 25.5 26.15625 L 25.5 13.5 C 25.5 7.683594 30.183594 3 36 3 Z M 3.1875 4.125 C 3.75 4.457031 4.308594 4.804688 5.015625 4.96875 C 5.042969 4.988281 5.082031 5.003906 5.109375 5.015625 L 7.359375 5.34375 L 6.984375 7.546875 C 6.917969 7.945312 7.019531 8.355469 7.253906 8.675781 C 7.496094 9.003906 7.851562 9.222656 8.25 9.28125 L 10.453125 9.65625 L 10.125 11.859375 C 10.058594 12.257812 10.160156 12.667969 10.394531 12.988281 C 10.636719 13.316406 10.992188 13.535156 11.390625 13.59375 L 13.59375 13.921875 L 13.265625 16.171875 C 13.160156 16.988281 13.722656 17.738281 14.53125 17.859375 L 16.734375 18.234375 L 16.359375 20.4375 C 16.292969 20.839844 16.402344 21.257812 16.644531 21.585938 C 16.894531 21.914062 17.261719 22.125 17.671875 22.171875 L 19.5 22.40625 L 19.5 24.609375 C 19.496094 25.113281 19.738281 25.589844 20.15625 25.875 L 22.5 27.375 L 22.5 38.296875 L 5.15625 14.203125 C 4.183594 12.867188 3.472656 10.382812 3.1875 7.921875 C 3.011719 6.410156 3.144531 5.363281 3.1875 4.125 Z M 36 10.5 C 34.339844 10.5 33 11.839844 33 13.5 C 33 15.160156 34.339844 16.5 36 16.5 C 37.660156 16.5 39 15.160156 39 13.5 C 39 11.839844 37.660156 10.5 36 10.5 Z M 49.5 14.0625 C 53.683594 19.144531 61.644531 28.878906 66 34.875 C 66.011719 34.894531 66.035156 34.902344 66.046875 34.921875 C 67.59375 38.371094 69.421875 42.050781 71.296875 46.265625 C 69.632812 46.378906 67.988281 46.125 66.375 45.28125 C 64.214844 44.152344 62.214844 42.339844 60.9375 40.78125 C 57.890625 37.074219 49.96875 27.386719 49.5 26.8125 Z M 3.234375 38.578125 C 3.722656 41.058594 4.566406 43.128906 5.8125 44.34375 C 6.761719 45.261719 7.800781 45.824219 8.8125 46.078125 C 9.824219 46.332031 10.804688 46.355469 11.71875 45.796875 C 12.269531 45.464844 12.589844 44.886719 12.703125 44.4375 C 12.816406 43.988281 12.832031 43.558594 12.796875 43.171875 C 12.726562 42.394531 12.503906 41.652344 12.234375 40.875 C 12.046875 40.332031 11.839844 40.019531 11.625 39.515625 C 12.355469 40.121094 12.777344 40.769531 13.078125 41.765625 C 13.378906 42.761719 13.5 44.085938 13.5 45.84375 C 13.5 50.238281 16.175781 53.285156 18.65625 55.03125 C 20.277344 56.175781 21.582031 56.753906 22.5 57.09375 L 22.5 61.5 C 22.5 61.519531 22.5 61.527344 22.5 61.546875 C 20.34375 60.222656 17.191406 58.183594 13.875 55.546875 C 11.074219 53.320312 8.308594 50.765625 6.28125 48.140625 C 4.253906 45.515625 3 42.886719 3 40.546875 C 3 39.605469 3.140625 39.230469 3.234375 38.578125 Z M 34.5 57 L 34.5 60 L 31.5 60 L 31.5 63 L 34.5 63 L 34.5 66 L 37.5 66 L 37.5 63 L 40.5 63 L 40.5 60 L 37.5 60 L 37.5 57 Z M 34.5 57 "/>
</g>
</svg>
